<svg xmlns="http://www.w3.org/2000/svg" width="50" height="50" viewBox="0 0 50 50">
	<style type="text/css">
        .enabled {
            fill: #bbbbbb;
        }
    </style>
	<g class="enabled">
    <path style="text-indent:0;text-align:start;line-height:normal;text-transform:none;block-progression:tb;-inkscape-font-specification:Bitstream Vera Sans" d="M 2.84375 1 C 1.2832271 1 0 2.2843509 0 3.84375 L 0 12.8125 A 1.0001 1.0001 0 0 0 0 13 L 0 14 L 0 41 A 1.0001 1.0001 0 0 0 1 42 L 19 42 A 1.0001 1.0001 0 1 0 19 40 L 2 40 L 2 14 L 48 14 L 48 40 L 30 40 A 1.0001 1.0001 0 1 0 30 42 L 49 42 A 1.0001 1.0001 0 0 0 50 41 L 50 14 L 50 13 A 1.0001 1.0001 0 0 0 50 12.8125 L 50 3.84375 C 50 2.2843509 48.716773 1 47.15625 1 L 2.84375 1 z M 2.84375 3 L 47.15625 3 C 47.635727 3 48 3.3651491 48 3.84375 L 48 12 L 2 12 L 2 3.84375 C 2 3.3651491 2.3642729 3 2.84375 3 z M 6.5 5 C 5.1192881 5 4 6.1192881 4 7.5 C 4 8.8807119 5.1192881 10 6.5 10 C 7.8807119 10 9 8.8807119 9 7.5 C 9 6.1192881 7.8807119 5 6.5 5 z M 12.5 5 C 11.119288 5 10 6.1192881 10 7.5 C 10 8.8807119 11.119288 10 12.5 10 C 13.880712 10 15 8.8807119 15 7.5 C 15 6.1192881 13.880712 5 12.5 5 z M 17 5 L 17 6 L 17 9 L 17 10 L 18 10 L 45 10 L 46 10 L 46 9 L 46 6 L 46 5 L 45 5 L 18 5 L 17 5 z M 19 7 L 44 7 L 44 8 L 19 8 L 19 7 z M 25 20.59375 L 24.28125 21.28125 L 16.3125 29.25 A 1.016466 1.016466 0 1 0 17.75 30.6875 L 24 24.4375 L 24 37 C 24 41.001947 22.865664 43.387921 21.125 44.875 C 19.384336 46.362079 16.894564 47 14 47 L 10 47 A 1.0001 1.0001 0 1 0 10 49 L 14 49 C 17.180436 49 20.196914 48.320421 22.4375 46.40625 C 24.678086 44.492079 26 41.393053 26 37 L 26 24.4375 L 32.25 30.6875 A 1.016466 1.016466 0 1 0 33.6875 29.25 L 25.71875 21.28125 L 25 20.59375 z"/>
	</g>
</svg>
